<?xml version="1.0" encoding="iso-8859-1"?>
<!-- Uploaded to: SVG Repo, www.svgrepo.com, Generator: SVG Repo Mixer Tools -->
<svg height="800px" width="800px" version="1.1" id="Layer_1" xmlns="http://www.w3.org/2000/svg" xmlns:xlink="http://www.w3.org/1999/xlink" 
	 viewBox="0 0 512 512" xml:space="preserve">
<polygon style="fill:#F4B2B0;" points="364.204,229.805 147.798,229.805 118.128,14.826 393.874,14.826 "/>
<g>
	<path style="fill:#B61F0C;" d="M364.202,244.631H147.799c-7.406,0-13.674-5.465-14.687-12.799L103.441,16.853
		c-0.586-4.245,0.694-8.537,3.509-11.769C109.766,1.855,113.841,0,118.128,0h275.746c4.286,0,8.362,1.855,11.177,5.085
		c2.815,3.232,4.095,7.523,3.509,11.769l-29.671,214.978C377.878,239.166,371.608,244.631,364.202,244.631z M160.719,214.978
		h190.563l25.578-185.326H135.141L160.719,214.978z"/>
	<path style="fill:#B3404A;" d="M376.833,512c-22.073,0-40.03-17.957-40.03-40.03s17.957-40.03,40.03-40.03
		s40.03,17.957,40.03,40.03S398.906,512,376.833,512z M376.833,461.591c-5.723,0-10.378,4.657-10.378,10.378
		s4.655,10.378,10.378,10.378c5.723,0,10.378-4.657,10.378-10.378S382.556,461.591,376.833,461.591z"/>
	<path style="fill:#B3404A;" d="M419.087,204.619c-8.188,0-14.826,6.639-14.826,14.826v48.768h-68.2
		c-8.188,0-14.826,6.639-14.826,14.826c0,8.187,6.638,14.826,14.826,14.826h68.2v8.098c0,11.828-9.622,21.45-21.45,21.45H129.189
		c-11.828,0-21.45-9.622-21.45-21.45v-8.098H256c8.188,0,14.826-6.639,14.826-14.826c0-8.187-6.638-14.826-14.826-14.826H107.739
		v-48.768c0-8.187-6.638-14.826-14.826-14.826s-14.826,6.639-14.826,14.826v86.516c0,28.178,22.924,51.103,51.103,51.103h111.984
		v25.431H135.167c-8.188,0-14.826,6.639-14.826,14.826v37.474c-14.752,5.905-25.204,20.337-25.204,37.172
		c0,22.073,17.957,40.03,40.03,40.03s40.03-17.957,40.03-40.03c0-16.835-10.452-31.267-25.204-37.172v-22.648h91.18v22.648
		c-14.752,5.905-25.204,20.337-25.204,37.172c0,22.073,17.957,40.03,40.03,40.03s40.03-17.957,40.03-40.03
		c0-16.835-10.452-31.267-25.204-37.172v-22.648h106.007c8.188,0,14.826-6.639,14.826-14.826s-6.638-14.826-14.826-14.826H270.826
		v-25.431h111.984c28.178,0,51.103-22.924,51.103-51.103v-86.516C433.913,211.257,427.276,204.619,419.087,204.619z
		 M135.167,482.348c-5.723,0-10.378-4.657-10.378-10.378s4.655-10.378,10.378-10.378s10.378,4.657,10.378,10.378
		S140.89,482.348,135.167,482.348z M256,482.348c-5.723,0-10.378-4.657-10.378-10.378s4.655-10.378,10.378-10.378
		s10.378,4.657,10.378,10.378S261.723,482.348,256,482.348z"/>
</g>
</svg>