<?xml version="1.0" encoding="iso-8859-1"?>
<!-- Uploaded to: SVG Repo, www.svgrepo.com, Generator: SVG Repo Mixer Tools -->
<svg height="800px" width="800px" version="1.1" id="Layer_1" xmlns="http://www.w3.org/2000/svg" xmlns:xlink="http://www.w3.org/1999/xlink" 
	 viewBox="0 0 504.32 504.32" xml:space="preserve">
<g transform="translate(3 1)">
	<path style="fill:#FFD0A1;" d="M453.96,225.133c14.507,9.387,24.747,25.6,24.747,43.52c0,19.627-11.093,36.693-28.16,45.227
		c16.213,5.973,28.16,21.333,28.16,40.107c0,23.893-18.773,42.667-42.667,42.667c-3.413,0-6.827-0.853-9.387-0.853
		c5.973,7.68,9.387,16.213,9.387,26.453c0,23.893-18.773,42.667-42.667,42.667c-13.653,0-26.453-6.827-34.133-17.067l0,0
		c-2.56,29.013-26.453,51.2-55.467,51.2c-12.8,0-24.747-4.267-34.987-11.947c0,0-20.48-16.213-20.48-39.253V46.787
		c0,0,8.533-42.667,46.933-42.667c24.747,0,44.373,18.773,46.933,42.667c6.827-5.12,16.213-8.533,25.6-8.533
		c23.893,0,42.667,18.773,42.667,42.667c0,3.413-0.853,5.973-0.853,9.387c20.48,3.413,34.987,20.48,34.987,41.813
		c0,11.093-4.267,20.48-11.093,28.16c16.213,5.973,28.16,21.333,28.16,40.107C461.64,209.773,459.08,217.453,453.96,225.133"/>
	<path style="fill:#FFD0A1;" d="M248.307,46.787v401.067c-2.56,29.013-26.453,51.2-55.467,51.2s-52.907-22.187-55.467-51.2l0,0
		c-7.68,10.24-20.48,17.067-34.133,17.067c-23.893,0-42.667-18.773-42.667-42.667c0-10.24,3.413-19.627,9.387-26.453
		c-3.413,0.853-6.827,0.853-9.387,0.853c-23.893,0-42.667-18.773-42.667-42.667c0-17.92,11.947-34.133,28.16-40.107
		c-16.213-8.533-28.16-25.6-28.16-45.227c0-18.773,10.24-34.987,24.747-43.52c-5.12-6.827-7.68-15.36-7.68-24.747
		c0-18.773,11.947-34.133,28.16-40.107c-6.827-7.68-11.093-17.067-11.093-28.16c0-21.333,15.36-38.4,34.987-41.813
		c-0.853-3.413-0.853-5.973-0.853-9.387c0-23.893,18.773-42.667,42.667-42.667c9.387,0,18.773,3.413,25.6,8.533
		c1.707-23.893,22.187-42.667,46.933-42.667c13.653,0,23.04,5.12,29.867,11.947C231.24,16.067,248.307,33.987,248.307,46.787"/>
</g>
<path style="fill:#51565F;" d="M306.773,504.32c-13.653,0-26.453-4.267-37.547-12.8c-1.707-1.707-2.56-4.267-0.853-5.973
	c1.707-1.707,4.267-2.56,5.973-0.853c9.387,7.68,20.48,11.093,31.573,11.093c26.453,0,48.64-20.48,51.2-46.933
	c0-0.853,0.853-2.56,1.707-2.56c0.853-0.853,0.853-0.853,1.707-0.853c1.707-0.853,3.413,0,5.12,1.707
	c7.68,10.24,18.773,15.36,30.72,15.36c21.333,0,38.4-17.067,38.4-38.4c0-8.533-3.413-17.067-8.533-23.893
	c-0.853-1.707-0.853-3.413,0-5.12c0.853-1.707,2.56-2.56,4.267-1.707c3.413,0.853,5.973,0.853,8.533,0.853
	c21.333,0,38.4-17.067,38.4-38.4c0-16.213-10.24-29.867-24.747-35.84c-1.707-0.853-2.56-1.707-2.56-3.413s0.853-3.413,2.56-4.267
	c15.36-8.533,25.6-23.893,25.6-41.813c0-16.213-8.533-31.573-23.04-40.107c-0.853-0.853-1.707-1.707-1.707-2.56
	c0-0.853,0-2.56,0.853-3.413c4.267-6.827,6.827-14.507,6.827-22.187c0-16.213-10.24-30.72-25.6-35.84
	c-1.707-0.853-2.56-1.707-2.56-2.56c0-1.707,0-2.56,0.853-4.267c5.973-6.827,10.24-16.213,10.24-25.6
	c0-18.773-13.653-34.133-31.573-37.547c-0.853,0-2.56-0.853-2.56-1.707c-0.853-0.853-0.853-2.56-0.853-3.413
	c0.853-2.56,0.853-5.973,0.853-8.533c0-21.333-17.067-38.4-38.4-38.4c-8.533,0-16.213,2.56-23.04,7.68
	c-0.853,0.853-2.56,0.853-4.267,0.853c-1.707-0.853-2.56-1.707-2.56-3.413c-1.707-22.187-20.48-39.253-42.667-39.253
	c-33.28,0-41.813,34.133-42.667,39.253v399.36l0,0l0,0c-2.56,30.72-29.013,55.467-59.733,55.467
	c-28.16,0-52.053-19.627-58.027-46.08c-8.533,7.68-19.627,11.947-31.573,11.947c-25.6,0-46.933-21.333-46.933-46.933
	c0-7.68,1.707-14.507,5.12-21.333c-26.453,0.853-47.787-20.48-47.787-46.933c0-16.213,9.387-31.573,23.04-40.107
	c-14.507-10.24-23.04-27.307-23.04-45.227c0-17.92,8.533-34.987,23.04-45.227c-4.267-6.827-5.973-15.36-5.973-23.04
	c0-17.92,10.24-33.28,25.6-41.813c-5.12-7.68-8.533-17.067-8.533-26.453c0-21.333,14.507-40.107,34.133-45.227
	c0-1.707,0-4.267,0-5.973c0-25.6,21.333-46.933,46.933-46.933c7.68,0,15.36,1.707,22.187,5.973
	c5.12-23.04,25.6-40.107,50.347-40.107c12.8,0,23.893,4.267,32.427,12.8c1.707,1.707,1.707,4.267,0,5.973
	c-1.707,1.707-4.267,1.707-5.973,0C224,12.8,215.467,9.387,204.373,9.387c-22.187,0-40.96,17.067-42.667,39.253
	c0,1.707-0.853,2.56-2.56,3.413c-1.707,0.853-3.413,0.853-4.267-0.853c-6.827-5.12-14.507-7.68-23.04-7.68
	c-21.333,0-38.4,17.067-38.4,38.4c0,2.56,0,5.12,0.853,8.533c0,0.853,0,2.56-0.853,3.413s-1.707,1.707-2.56,1.707
	c-18.773,3.413-31.573,18.773-31.573,37.547c0,9.387,3.413,18.773,10.24,25.6c0.853,0.853,1.707,2.56,0.853,4.267
	c0,1.707-1.707,2.56-2.56,2.56c-15.36,5.12-25.6,19.627-25.6,35.84c0,7.68,2.56,15.36,6.827,22.187
	c0.853,0.853,0.853,2.56,0.853,3.413c0,0.853-0.853,2.56-1.707,2.56c-14.507,8.533-23.04,23.893-23.04,40.107
	c0,17.92,9.387,33.28,25.6,41.813c1.707,0.853,2.56,2.56,2.56,4.267c0,1.707-0.853,3.413-2.56,3.413
	c-15.36,5.973-24.747,19.627-24.747,35.84c0,21.333,17.067,38.4,38.4,38.4c2.56,0,5.973,0,8.533-0.853c1.707,0,3.413,0,4.267,1.707
	c0.853,1.707,0.853,3.413,0,5.12c-5.973,6.827-8.533,15.36-8.533,23.893c0,21.333,17.067,38.4,38.4,38.4
	c11.947,0,23.04-5.973,30.72-15.36c2.56-2.56,7.68-1.707,7.68,2.56c1.707,26.453,24.747,46.933,51.2,46.933
	s49.493-20.48,51.2-46.933V47.787c0,0,0,0,0-0.853c0,0,0,0,0-0.853C248.747,42.667,258.987,0,299.093,0
	c23.893,0,45.227,17.067,50.347,40.107c6.827-4.267,14.507-5.973,22.187-5.973c25.6,0,46.933,21.333,46.933,46.933
	c0,1.707,0,4.267,0,5.973c20.48,5.12,34.133,23.893,34.133,45.227c0,9.387-2.56,18.773-8.533,26.453
	c15.36,7.68,25.6,23.893,25.6,41.813c0,8.533-1.707,16.213-5.973,23.04c14.507,10.24,23.04,27.307,23.04,45.227
	c0,17.92-8.533,34.987-23.04,45.227c14.507,8.533,23.04,23.893,23.04,40.107c0,26.453-21.333,47.787-47.787,46.933
	c3.413,6.827,5.12,13.653,5.12,21.333c0,25.6-21.333,46.933-46.933,46.933c-11.947,0-23.04-4.267-31.573-11.947
	C358.827,484.694,334.933,504.32,306.773,504.32z M362.24,418.987c-2.56,0-4.267-1.707-4.267-4.267
	c0-14.507-15.36-29.867-29.867-29.867c-2.56,0-4.267-1.707-4.267-4.267c0-2.56,1.707-4.267,4.267-4.267
	c19.627,0,38.4,18.773,38.4,38.4C366.507,417.28,364.8,418.987,362.24,418.987z M140.373,418.987c-2.56,0-4.267-1.707-4.267-4.267
	c0-19.627,18.773-38.4,38.4-38.4c2.56,0,4.267,1.707,4.267,4.267c0,2.56-1.707,4.267-4.267,4.267
	c-14.507,0-29.867,15.36-29.867,29.867C144.64,417.28,142.933,418.987,140.373,418.987z M413.44,350.72
	c-2.56,0-4.267-1.707-4.267-4.267c0-14.507-15.36-29.867-29.867-29.867c-2.56,0-4.267-1.707-4.267-4.267s1.707-4.267,4.267-4.267
	c19.627,0,38.4,18.773,38.4,38.4C417.707,349.013,416,350.72,413.44,350.72z M89.173,350.72c-2.56,0-4.267-1.707-4.267-4.267
	c0-19.627,18.773-38.4,38.4-38.4c2.56,0,4.267,1.707,4.267,4.267s-1.707,4.267-4.267,4.267c-14.507,0-29.867,15.36-29.867,29.867
	C93.44,349.013,91.733,350.72,89.173,350.72z M293.973,333.653c-2.56,0-4.267-1.707-4.267-4.267c0-19.627,18.773-38.4,38.4-38.4
	c2.56,0,4.267,1.707,4.267,4.267c0,2.56-1.707,4.267-4.267,4.267c-14.507,0-29.867,15.36-29.867,29.867
	C298.24,331.947,296.533,333.653,293.973,333.653z M208.64,333.653c-2.56,0-4.267-1.707-4.267-4.267
	c0-14.507-15.36-29.867-29.867-29.867c-2.56,0-4.267-1.707-4.267-4.267c0-2.56,1.707-4.267,4.267-4.267
	c19.627,0,38.4,18.773,38.4,38.4C212.907,331.947,211.2,333.653,208.64,333.653z M379.307,248.32c-2.56,0-4.267-1.707-4.267-4.267
	c0-2.56,1.707-4.267,4.267-4.267c14.507,0,29.867-15.36,29.867-29.867c0-2.56,1.707-4.267,4.267-4.267s4.267,1.707,4.267,4.267
	C417.707,229.547,398.933,248.32,379.307,248.32z M123.307,248.32c-19.627,0-38.4-18.773-38.4-38.4c0-2.56,1.707-4.267,4.267-4.267
	c2.56,0,4.267,1.707,4.267,4.267c0,14.507,15.36,29.867,29.867,29.867c2.56,0,4.267,1.707,4.267,4.267
	C127.573,246.613,125.867,248.32,123.307,248.32z M328.107,231.253c-19.627,0-38.4-18.773-38.4-38.4c0-2.56,1.707-4.267,4.267-4.267
	s4.267,1.707,4.267,4.267c0,14.507,15.36,29.867,29.867,29.867c2.56,0,4.267,1.707,4.267,4.267
	C332.373,229.547,330.667,231.253,328.107,231.253z M174.507,231.253c-2.56,0-4.267-1.707-4.267-4.267
	c0-2.56,1.707-4.267,4.267-4.267c14.507,0,29.867-15.36,29.867-29.867c0-2.56,1.707-4.267,4.267-4.267s4.267,1.707,4.267,4.267
	C212.907,212.48,194.133,231.253,174.507,231.253z M396.373,162.987c-19.627,0-38.4-18.773-38.4-38.4
	c0-2.56,1.707-4.267,4.267-4.267s4.267,1.707,4.267,4.267c0,14.507,15.36,29.867,29.867,29.867c2.56,0,4.267,1.707,4.267,4.267
	S398.933,162.987,396.373,162.987z M106.24,162.987c-2.56,0-4.267-1.707-4.267-4.267s1.707-4.267,4.267-4.267
	c14.507,0,29.867-15.36,29.867-29.867c0-2.56,1.707-4.267,4.267-4.267c2.56,0,4.267,1.707,4.267,4.267
	C144.64,144.213,125.867,162.987,106.24,162.987z M293.973,120.32c-2.56,0-4.267-1.707-4.267-4.267c0-19.627,18.773-38.4,38.4-38.4
	c2.56,0,4.267,1.707,4.267,4.267c0,2.56-1.707,4.267-4.267,4.267c-14.507,0-29.867,15.36-29.867,29.867
	C298.24,118.613,296.533,120.32,293.973,120.32z M208.64,120.32c-2.56,0-4.267-1.707-4.267-4.267
	c0-14.507-15.36-29.867-29.867-29.867c-2.56,0-4.267-1.707-4.267-4.267c0-2.56,1.707-4.267,4.267-4.267
	c19.627,0,38.4,18.773,38.4,38.4C212.907,118.613,211.2,120.32,208.64,120.32z"/>
</svg>