<?xml version="1.0" encoding="iso-8859-1"?>
<!-- Uploaded to: SVG Repo, www.svgrepo.com, Generator: SVG Repo Mixer Tools -->
<svg height="800px" width="800px" version="1.1" id="Layer_1" xmlns="http://www.w3.org/2000/svg" xmlns:xlink="http://www.w3.org/1999/xlink" 
	 viewBox="0 0 512 512" xml:space="preserve">
<path style="fill:#F4B2B0;" d="M438.296,285.488H226.229l137.434,161.361C409.322,408.002,438.296,350.132,438.296,285.488z"/>
<g>
	<path style="fill:#B61F0C;" d="M453.03,285.485c0-8.136-6.597-14.733-14.733-14.733H240.962V73.706
		c0-3.91-1.556-7.661-4.323-10.425c-2.762-2.758-6.508-4.308-10.41-4.308c-0.006,0-0.013,0-0.021,0
		C101.477,59.139,0,160.752,0,285.485c0,124.899,101.614,226.515,226.515,226.515c53.72,0,105.817-19.153,146.696-53.932
		c0.007-0.006,0.013-0.012,0.019-0.018C423.944,414.894,453.03,351.998,453.03,285.485
		C453.03,285.486,453.03,285.486,453.03,285.485L453.03,285.485z M29.466,285.485c0-103.547,80.385-188.776,182.03-196.478v181.745
		H108.67c-8.136,0-14.733,6.597-14.733,14.733s6.597,14.733,14.733,14.733h110.753l123.106,144.537
		c-33.559,24.454-74.221,37.778-116.014,37.778C117.861,482.535,29.466,394.139,29.466,285.485z M364.979,425.668L258.132,300.221
		h164.883C419.471,347.692,398.89,392.178,364.979,425.668z"/>
	<path style="fill:#B61F0C;" d="M492.249,134.045l-1.136-2.471c-11.14-24.031-26.365-45.795-44.787-64.389l-2.596-2.571
		c-18.77-18.351-40.699-33.484-64.898-44.472l-2.347-1.034C348.619,6.833,317.836,0.001,285.484,0.001l-0.507,0.006
		c-8.05,0.121-14.514,6.68-14.514,14.732v211.777c0,8.136,6.597,14.733,14.733,14.733H390.67c0.029,0,0.06,0.004,0.09,0.004
		c0.501,0,1-0.029,1.5-0.08c0.031-0.003,0.059-0.01,0.09-0.013c0.448-0.049,0.893-0.115,1.336-0.203
		c0.122-0.025,0.24-0.06,0.362-0.088c0.348-0.08,0.692-0.162,1.034-0.265c0.137-0.043,0.268-0.096,0.402-0.141
		c0.321-0.109,0.641-0.218,0.956-0.351c0.124-0.052,0.24-0.113,0.362-0.168c0.317-0.143,0.632-0.287,0.94-0.454
		c0.105-0.056,0.205-0.122,0.308-0.181c0.311-0.178,0.622-0.358,0.922-0.561c0.096-0.063,0.183-0.137,0.277-0.203
		c0.296-0.209,0.592-0.42,0.875-0.654c0.087-0.071,0.165-0.153,0.25-0.225c0.271-0.234,0.545-0.467,0.803-0.726l71.623-71.61
		c6.31,19.271,9.731,39.837,9.731,61.188c0,8.136,6.597,14.733,14.733,14.733S512,234.651,512,226.516
		C512,193.595,504.933,162.296,492.249,134.045z M299.931,125.649l74.785-74.785c13.933,7.107,26.917,15.82,38.699,25.901
		L299.932,190.258v-64.609H299.931z M345.188,38.719l-45.257,45.257V29.99C315.591,31.132,330.747,34.118,345.188,38.719z
		 M384.665,211.783h-64.588l114.239-114.25c10.153,11.698,18.956,24.595,26.156,38.456L384.665,211.783z"/>
</g>
</svg>