<?xml version="1.0" encoding="iso-8859-1"?>
<!-- Uploaded to: SVG Repo, www.svgrepo.com, Generator: SVG Repo Mixer Tools -->
<svg height="800px" width="800px" version="1.1" id="Layer_1" xmlns="http://www.w3.org/2000/svg" xmlns:xlink="http://www.w3.org/1999/xlink" 
	 viewBox="0 0 512 512" xml:space="preserve">
<path style="fill:#F7D04A;" d="M24.05,8.017h463.9c8.855,0,16.033,7.179,16.033,16.033v463.9c0,8.855-7.179,16.033-16.033,16.033
	H24.05c-8.855,0-16.033-7.179-16.033-16.033V24.05C8.017,15.195,15.195,8.017,24.05,8.017z"/>
<path style="fill:#F3B41B;" d="M24.05,8.017c-8.855,0-16.033,7.179-16.033,16.033v463.9c0,8.855,7.179,16.033,16.033,16.033h366.419
	L124.319,8.017H24.05z"/>
<circle style="fill:#EB6836;" cx="256" cy="256" r="188.125"/>
<circle style="fill:#C74B38;" cx="256" cy="256" r="171.023"/>
<path style="fill:#F2F2F2;" d="M256,266.689c32.49,0,62.374,11.151,86.037,29.833c19.384,15.304,48.048,3.676,51.526-20.775
	c0.913-6.417,1.387-12.974,1.393-19.642c0.057-76.732-62.227-139.062-138.957-139.061C179.257,117.045,117.044,179.257,117.044,256
	c0,6.898,0.502,13.679,1.473,20.307c3.542,24.191,32.247,35.376,51.435,20.223C193.617,277.843,223.506,266.689,256,266.689z"/>
<path style="fill:#E5E5E5;" d="M154.859,276.307c-0.971-6.628-1.473-13.409-1.473-20.307c0-70.581,52.624-128.866,120.776-137.772
	c-5.946-0.778-12.008-1.184-18.164-1.184C179.257,117.045,117.044,179.257,117.044,256c0,6.898,0.502,13.679,1.473,20.307
	c3.441,23.497,30.62,34.718,49.759,21.457C161.378,293.07,156.231,285.669,154.859,276.307z"/>
<path style="fill:#666666;" d="M372.834,226.815c-3.132-3.13-8.207-3.13-11.338,0l-12.338,12.338
	c-22.299-23.774-52.664-38.053-85.141-40.08v-9.344c0-4.428-3.588-8.017-8.017-8.017c-4.427,0-8.017,3.588-8.017,8.017v9.344
	c-32.477,2.027-62.843,16.306-85.142,40.08l-12.338-12.338c-3.131-3.13-8.207-3.13-11.337,0c-3.131,3.132-3.131,8.207,0,11.338
	l25.653,25.653c1.565,1.565,3.617,2.347,5.668,2.347s4.103-0.782,5.668-2.347c3.131-3.132,3.131-8.207,0-11.338l-1.967-1.967
	c19.303-20.768,45.604-33.344,73.793-35.359v8.79c0,4.428,3.589,8.017,8.017,8.017c4.428,0,8.017-3.588,8.017-8.017v-8.79
	c28.189,2.014,54.489,14.591,73.793,35.358l-1.968,1.968c-3.131,3.132-3.131,8.207,0,11.338c1.566,1.565,3.618,2.347,5.669,2.347
	s4.103-0.782,5.669-2.347l25.653-25.653C375.964,235.022,375.964,229.947,372.834,226.815z"/>
<path style="fill:#C74B38;" d="M255.998,274.706c-1.911,0-3.829-0.679-5.36-2.059c-3.291-2.962-3.558-8.031-0.596-11.322
	l76.96-85.511c2.962-3.291,8.032-3.557,11.322-0.595c3.29,2.962,3.557,8.031,0.595,11.322l-76.96,85.511
	C260.376,273.811,258.191,274.706,255.998,274.706z"/>
<g>
	<circle style="fill:#CCCCCC;" cx="76.426" cy="78.564" r="34.205"/>
	<circle style="fill:#CCCCCC;" cx="256" cy="352.2" r="34.205"/>
	<circle style="fill:#CCCCCC;" cx="76.426" cy="437.712" r="34.205"/>
	<circle style="fill:#CCCCCC;" cx="435.574" cy="78.564" r="34.205"/>
	<circle style="fill:#CCCCCC;" cx="435.574" cy="437.712" r="34.205"/>
</g>
<path d="M503.983,163.541c4.428,0,8.017-3.588,8.017-8.017V24.05C512,10.789,501.211,0,487.95,0H24.05C10.788,0,0,10.789,0,24.05
	v463.9C0,501.211,10.788,512,24.05,512h463.9c13.261,0,24.05-10.789,24.05-24.05V206.831c0-4.428-3.588-8.017-8.017-8.017
	s-8.017,3.588-8.017,8.017V487.95c0,4.421-3.596,8.017-8.017,8.017H24.05c-4.421,0-8.017-3.596-8.017-8.017V24.05
	c0-4.421,3.596-8.017,8.017-8.017h463.9c4.421,0,8.017,3.596,8.017,8.017v131.474C495.967,159.952,499.555,163.541,503.983,163.541z
	"/>
<path d="M452.142,256c0-108.154-87.988-196.142-196.142-196.142C147.847,59.858,59.858,147.846,59.858,256
	c0,22.157,3.668,43.903,10.902,64.635c1.459,4.18,6.032,6.388,10.21,4.928c4.18-1.458,6.387-6.03,4.929-10.21
	c-6.64-19.03-10.007-38.999-10.007-59.352c0-99.312,80.797-180.109,180.109-180.109S436.109,156.688,436.109,256
	S355.312,436.109,256,436.109c-58.53,0-113.621-28.611-147.367-76.535c-2.548-3.621-7.55-4.488-11.171-1.938
	c-3.62,2.549-4.488,7.55-1.939,11.17c36.746,52.182,96.737,83.336,160.477,83.336C364.154,452.142,452.142,364.154,452.142,256z"/>
<path d="M376.637,308.529c13.517-5.409,22.812-17.24,24.862-31.652c0.972-6.826,1.468-13.812,1.473-20.765
	c0.029-39.254-15.253-76.18-43.029-103.977c-27.777-27.799-64.692-43.107-103.946-43.106c-81.039,0-146.971,65.933-146.971,146.972
	c0,7.187,0.524,14.41,1.558,21.469c2.072,14.151,11.294,25.774,24.669,31.093c4.902,1.95,9.978,2.907,15.003,2.907
	c8.803,0,17.441-2.943,24.664-8.647c23.291-18.393,51.328-28.116,81.079-28.116c29.746,0,57.78,9.719,81.07,28.109
	C348.409,311.768,363.201,313.904,376.637,308.529z M164.985,290.239c-6.798,5.369-15.698,6.651-23.805,3.424
	c-7.99-3.178-13.496-10.099-14.729-18.518c-0.922-6.293-1.39-12.734-1.39-19.145c0-72.199,58.739-130.938,130.938-130.939
	c34.968,0,67.855,13.639,92.604,38.406c24.747,24.766,38.364,57.664,38.337,92.631c-0.005,6.204-0.447,12.434-1.313,18.519
	c-1.232,8.662-6.82,15.775-14.945,19.025c-8.043,3.219-16.895,1.943-23.676-3.412c-26.148-20.646-57.619-31.558-91.006-31.558
	C222.607,258.672,191.134,269.588,164.985,290.239z"/>
<path d="M76.426,120.785c23.281,0,42.221-18.941,42.221-42.221S99.706,36.342,76.426,36.342S34.205,55.283,34.205,78.564
	S53.145,120.785,76.426,120.785z M76.426,104.752c-4.318,0-8.393-1.057-11.988-2.917c0.189-0.157,35.101-35.068,35.259-35.259
	c1.86,3.595,2.917,7.669,2.917,11.988C102.614,93.004,90.866,104.752,76.426,104.752z M76.426,52.376
	c4.318,0,8.393,1.057,11.988,2.917c-0.189,0.157-35.101,35.068-35.259,35.259c-1.86-3.595-2.917-7.669-2.917-11.988
	C50.238,64.123,61.986,52.376,76.426,52.376z"/>
<path d="M213.779,352.2c0,23.28,18.941,42.221,42.221,42.221c23.281,0,42.221-18.941,42.221-42.221
	c0-23.281-18.941-42.221-42.221-42.221C232.72,309.979,213.779,328.92,213.779,352.2z M256,326.013
	c4.318,0,8.392,1.057,11.987,2.916c-0.19,0.157-35.1,35.069-35.259,35.259c-1.859-3.594-2.916-7.668-2.916-11.987
	C229.812,337.76,241.56,326.013,256,326.013z M256,378.388c-4.318,0-8.393-1.057-11.988-2.917
	c0.189-0.157,35.101-35.068,35.258-35.259c1.859,3.595,2.916,7.668,2.916,11.987C282.188,366.641,270.441,378.388,256,378.388z"/>
<path d="M76.426,479.933c23.281,0,42.221-18.941,42.221-42.221c0-23.281-18.941-42.221-42.221-42.221s-42.221,18.941-42.221,42.221
	C34.205,460.992,53.145,479.933,76.426,479.933z M76.426,463.9c-4.318,0-8.393-1.057-11.988-2.917
	c0.189-0.157,35.101-35.068,35.259-35.259c1.86,3.595,2.917,7.669,2.917,11.988C102.614,452.153,90.866,463.9,76.426,463.9z
	 M76.426,411.524c4.318,0,8.393,1.057,11.988,2.917c-0.189,0.157-35.101,35.068-35.259,35.259c-1.86-3.595-2.917-7.669-2.917-11.988
	C50.238,423.271,61.986,411.524,76.426,411.524z"/>
<path d="M435.574,36.342c-23.281,0-42.221,18.941-42.221,42.221s18.941,42.221,42.221,42.221c23.28,0,42.221-18.941,42.221-42.221
	S458.855,36.342,435.574,36.342z M409.386,78.564c0-4.318,1.057-8.392,2.916-11.987c0.157,0.19,35.069,35.101,35.259,35.259
	c-3.595,1.859-7.668,2.916-11.987,2.916C421.133,104.752,409.386,93.004,409.386,78.564z M458.846,90.55
	c-0.157-0.19-35.069-35.101-35.259-35.259c3.595-1.859,7.668-2.916,11.987-2.916c14.441,0,26.188,11.747,26.188,26.188
	C461.762,82.882,460.705,86.956,458.846,90.55z"/>
<path d="M435.574,479.933c23.28,0,42.221-18.941,42.221-42.221c0-23.281-18.941-42.221-42.221-42.221
	c-23.281,0-42.221,18.941-42.221,42.221C393.353,460.992,412.294,479.933,435.574,479.933z M461.762,437.712
	c0,4.318-1.057,8.392-2.916,11.987c-0.157-0.19-35.069-35.101-35.259-35.259c3.595-1.859,7.668-2.916,11.987-2.916
	C450.015,411.524,461.762,423.271,461.762,437.712z M412.302,425.725c0.157,0.19,35.069,35.101,35.259,35.259
	c-3.595,1.859-7.668,2.916-11.987,2.916c-14.441,0-26.188-11.747-26.188-26.188C409.386,433.394,410.443,429.32,412.302,425.725z"/>
</svg>