<?xml version="1.0" encoding="iso-8859-1"?>
<!-- Uploaded to: SVG Repo, www.svgrepo.com, Generator: SVG Repo Mixer Tools -->
<svg version="1.1" id="Layer_1" xmlns="http://www.w3.org/2000/svg" xmlns:xlink="http://www.w3.org/1999/xlink" 
	 viewBox="0 0 512 512" xml:space="preserve">
<rect x="76.828" y="337.505" style="fill:#F4B2B0;" width="358.365" height="159.873"/>
<g>
	<path style="fill:#B3404A;" d="M435.179,277.966c8.079,0,14.628-6.549,14.628-14.628V14.628C449.808,6.549,443.259,0,435.179,0
		H76.821c-8.079,0-14.628,6.549-14.628,14.628v322.875v159.868l0,0c0,8.079,6.549,14.628,14.628,14.628h358.359
		c8.079,0,14.628-6.549,14.628-14.628V337.503c0-8.079-6.549-14.628-14.628-14.628h-75.252v-71.001
		c0-8.079-6.549-14.628-14.628-14.628s-14.628,6.549-14.628,14.628v71.001H181.33v-71.001c0-23.739,19.314-43.053,43.053-43.053
		h13.933c0.132,0.001,0.262,0.01,0.393,0.01h2.662v65.947c0,8.079,6.549,14.628,14.628,14.628c8.079,0,14.628-6.549,14.628-14.628
		v-65.947h2.661c30.974,0,56.173-25.199,56.173-56.171v-39.046c0-8.079-6.549-14.628-14.628-14.628
		c-8.079,0-14.628,6.549-14.628,14.628v39.046c0,14.808-12.022,26.856-26.817,26.91c-0.034,0-0.066-0.004-0.099-0.004h-34.777
		c-14.75-0.108-26.717-12.131-26.717-26.906v-39.046c0-14.842,12.074-26.916,26.915-26.916h34.58
		c8.079,0,14.628-6.549,14.628-14.628s-6.549-14.628-14.628-14.628h-34.58c-30.973,0-56.171,25.199-56.171,56.173v39.046
		c0,12.639,4.198,24.312,11.27,33.708c-24.628,11.542-41.735,36.558-41.735,65.506v71.001H91.449V29.257h329.102v234.081
		C420.551,271.417,427.1,277.966,435.179,277.966z M166.701,352.131h178.597h75.252v130.612H91.449V352.131L166.701,352.131
		L166.701,352.131z"/>
	<path style="fill:#B3404A;" d="M258.926,400.81H147.75c-8.079,0-14.628-6.549-14.628-14.628s6.549-14.628,14.628-14.628h111.175
		c8.079,0,14.628,6.549,14.628,14.628S267.005,400.81,258.926,400.81z"/>
	<path style="fill:#B3404A;" d="M364.25,400.81h-49.736c-8.079,0-14.628-6.549-14.628-14.628s6.549-14.628,14.628-14.628h49.736
		c8.079,0,14.628,6.549,14.628,14.628S372.329,400.81,364.25,400.81z"/>
	<path style="fill:#B3404A;" d="M367.175,459.323h-222.35c-8.079,0-14.628-6.549-14.628-14.628c0-8.079,6.549-14.628,14.628-14.628
		h222.35c8.079,0,14.628,6.549,14.628,14.628C381.803,452.774,375.254,459.323,367.175,459.323z"/>
</g>
</svg>